<svg width="256" height="60" viewBox="0 0 256 60" fill="none" xmlns="http://www.w3.org/2000/svg">
<g clip-path="url(#clip0_2001_238)">
<g clip-path="url(#clip1_2001_238)">
<path d="M33.1594 38.2102C34.457 39.508 35.2277 41.2406 35.3226 43.0734C35.6447 45.4017 35.8083 47.7492 35.8121 50.0997C35.8139 50.2381 35.8476 50.3742 35.9106 50.4974C35.9736 50.6206 36.0641 50.7277 36.1752 50.8102C36.3726 50.9487 36.616 51.0053 36.8542 50.9681C37.1126 50.9215 37.3473 50.7882 37.5196 50.5901C37.6918 50.392 37.7913 50.141 37.8015 49.8786C38.0068 43.3102 38.4016 39.5365 40.5805 37.0734C42.7594 34.6102 46.3437 33.5681 52.8015 32.3365C53.0583 32.2895 53.291 32.1555 53.4607 31.9571C53.6303 31.7587 53.7265 31.508 53.7331 31.247C53.734 31.007 53.6437 30.7757 53.4805 30.5997C53.3829 30.501 53.2634 30.4268 53.1317 30.3829C53 30.339 52.8599 30.3267 52.7226 30.347C50.4005 30.6954 48.0593 30.9011 45.7121 30.9628C43.889 31.1448 42.0627 30.6503 40.5805 29.5734C39.2809 28.2754 38.5051 26.544 38.4015 24.7102C38.0841 22.3812 37.9154 20.0343 37.8963 17.6839C37.8926 17.5419 37.8566 17.4027 37.7909 17.2768C37.7253 17.151 37.6317 17.0418 37.5173 16.9576C37.4216 16.8914 37.3137 16.8448 37.1999 16.8204C37.0861 16.796 36.9686 16.7943 36.8542 16.8155C36.5958 16.862 36.3611 16.9954 36.1888 17.1935C36.0165 17.3916 35.917 17.6426 35.9068 17.9049C35.7015 24.4734 35.3068 28.247 33.1279 30.7102C30.9489 33.1734 27.3647 34.2155 20.9068 35.447C20.6487 35.4913 20.4143 35.6244 20.2441 35.8234C20.074 36.0224 19.9788 36.2747 19.9752 36.5365C19.9711 36.7771 20.0619 37.0097 20.2279 37.1839C20.3255 37.2825 20.445 37.3568 20.5767 37.4007C20.7083 37.4446 20.8485 37.4568 20.9858 37.4365C23.3017 37.0835 25.6383 36.8831 27.9805 36.8365C29.8175 36.635 31.6638 37.1247 33.1594 38.2102Z" fill="#6FBA2C"/>
<path d="M10.7537 48.0631C11.8312 49.1397 12.4627 50.5832 12.5221 52.1052C12.7678 54.0062 12.8996 55.9201 12.9169 57.8368C12.9146 57.9492 12.9409 58.0603 12.9934 58.1598C13.0459 58.2592 13.1228 58.3437 13.2169 58.4052C13.3771 58.5188 13.5758 58.5642 13.7695 58.5315C13.9791 58.4927 14.1696 58.3843 14.31 58.2238C14.4504 58.0634 14.5325 57.8603 14.5432 57.6473C14.7169 52.2789 15.0326 49.2157 16.8011 47.1947C18.5695 45.1736 21.5063 44.2105 26.8432 43.2631C27.0525 43.2265 27.2425 43.1183 27.3808 42.957C27.519 42.7957 27.5969 42.5913 27.6011 42.3789C27.601 42.1808 27.5279 41.9897 27.3958 41.842C27.3104 41.7668 27.2098 41.7109 27.1007 41.6782C26.9917 41.6455 26.8769 41.6368 26.7642 41.6526C24.8709 41.9335 22.962 42.097 21.0484 42.1421C19.5407 42.3319 18.0171 41.9425 16.7853 41.0526C15.7258 39.9958 15.0957 38.5838 15.0169 37.0894C14.7706 35.1885 14.6388 33.2745 14.6221 31.3578C14.6191 31.2442 14.5906 31.1327 14.5387 31.0316C14.4868 30.9304 14.4127 30.8423 14.3221 30.7736C14.1619 30.6601 13.9632 30.6146 13.7695 30.6473C13.5602 30.6839 13.3702 30.7921 13.2319 30.9534C13.0936 31.1147 13.0157 31.3191 13.0116 31.5315C12.8221 36.8999 12.5221 39.9789 10.7379 41.9842C8.9537 43.9894 6.03265 44.7947 0.758963 45.7894C0.549679 45.826 0.359629 45.9342 0.221363 46.0955C0.0830974 46.2568 0.00521943 46.4612 0.00106783 46.6736C-0.00198228 46.8723 0.0715152 47.0645 0.206331 47.2105C0.288431 47.2914 0.388251 47.3521 0.497879 47.3877C0.607506 47.4233 0.723927 47.4329 0.83791 47.4157C2.73018 47.1234 4.63949 46.9546 6.5537 46.9105C8.04736 46.7702 9.54085 47.1801 10.7537 48.0631Z" fill="#00A0E9"/>
<path d="M75.1742 13.4682C75.7653 13.4271 76.3418 13.2658 76.8685 12.9944C77.3952 12.7229 77.861 12.3468 78.2374 11.8892C78.7969 11.2278 79.1466 10.4145 79.2418 9.55335C79.337 8.69219 79.1733 7.8222 78.7716 7.05451C78.37 6.28682 77.7486 5.65628 76.9869 5.24341C76.2252 4.83054 75.3577 4.6541 74.4953 4.73661C73.6221 4.79895 72.7881 5.12379 72.1028 5.66849C71.4174 6.2132 70.9128 6.95234 70.655 7.78895C70.3972 8.62555 70.3982 9.52055 70.6581 10.3565C70.9179 11.1925 71.4244 11.9304 72.1111 12.4734C72.9652 13.1883 74.063 13.5448 75.1742 13.4682Z" fill="#E60044"/>
<path d="M60.2214 26.2097C61.6898 27.4097 62.432 29.3676 62.8583 32.1624C63.2398 35.0099 63.4402 37.8789 63.4583 40.7518C63.4556 40.9216 63.4945 41.0895 63.5716 41.2409C63.6486 41.3923 63.7615 41.5225 63.9004 41.6203C64.1403 41.7848 64.4336 41.8525 64.7214 41.8097C65.0383 41.752 65.3256 41.5871 65.5354 41.3428C65.7453 41.0985 65.8648 40.7895 65.8741 40.4676C66.1425 32.4308 66.6162 27.836 69.2846 24.7887C71.953 21.7413 76.3425 20.5097 84.2372 19.0097C84.5511 18.9488 84.8349 18.7825 85.0416 18.5385C85.2483 18.2945 85.3656 17.9873 85.3741 17.6676C85.3809 17.5211 85.3562 17.3748 85.3018 17.2386C85.2473 17.1025 85.1643 16.9795 85.0583 16.8781C84.9443 16.753 84.8007 16.6585 84.6407 16.6034C84.4807 16.5482 84.3094 16.5341 84.1425 16.5624C81.3035 16.9938 78.4397 17.2417 75.5688 17.3045C72.7109 17.3045 70.6898 16.8781 69.253 15.615C67.8162 14.3518 67.0583 12.4571 66.6004 9.66236C66.2407 6.81829 66.0509 3.95532 66.032 1.08867C66.0374 0.918388 65.9998 0.74948 65.9225 0.59765C65.8452 0.44582 65.7308 0.315997 65.5899 0.220251C65.472 0.124315 65.3348 0.0549117 65.1876 0.0167661C65.0405 -0.0213796 64.8869 -0.0273715 64.7372 -0.000801608C64.4178 0.0512662 64.127 0.21446 63.9161 0.46C63.7052 0.70554 63.5878 1.01766 63.5846 1.3413C63.3162 9.37815 62.8425 13.9729 60.1741 17.0045C57.5056 20.036 53.132 21.2992 45.2214 22.7992C44.9075 22.8602 44.6238 23.0264 44.4171 23.2704C44.2104 23.5144 44.0931 23.8216 44.0846 24.1413C44.0825 24.2872 44.1093 24.4321 44.1635 24.5676C44.2177 24.7031 44.2982 24.8266 44.4004 24.9308C44.5168 25.0519 44.6612 25.1426 44.8209 25.1949C44.9805 25.2473 45.1506 25.2596 45.3162 25.2308C48.1561 24.8074 51.0194 24.5596 53.8899 24.4887C56.8425 24.5203 58.8004 24.9466 60.2214 26.2097Z" fill="#F08300"/>
<path d="M124.738 40.1998C124.738 38.8576 124.848 37.4998 124.911 36.1103V35.2734L124.09 35.3998L123.332 35.5103C122.892 35.5577 122.447 35.5577 122.006 35.5103L121.248 35.3998L120.427 35.2734V36.1103C120.427 37.4998 120.554 38.8576 120.601 40.1998C120.648 41.5419 120.601 43.1998 120.601 44.5734V44.9998H118.011H114.759H110.906H108.301V44.5734C108.301 43.1998 108.301 41.5261 108.301 40.1998C108.301 38.8734 108.411 37.4998 108.475 36.1103V35.2734L107.669 35.3998L106.896 35.5103C106.455 35.5577 106.01 35.5577 105.569 35.5103L104.811 35.3998L104.211 35.2734V36.1103C104.211 37.4998 104.338 38.8576 104.401 40.1998C104.464 41.5419 104.401 42.8998 104.401 44.2734V49.705C104.401 51.0787 104.401 52.4524 104.401 53.7945C104.401 55.1366 104.29 56.4629 104.211 57.7734V58.5471H104.985C105.962 58.4682 106.945 58.4682 107.922 58.5471H108.696V57.7734C108.696 56.4629 108.569 55.1366 108.522 53.7945C108.475 52.4524 108.522 51.0945 108.522 49.705V47.2261H111.111H118.232H120.822V49.705C120.822 51.0787 120.822 52.4524 120.822 53.7945C120.822 55.1366 120.711 56.4629 120.648 57.7734V58.5629L121.264 58.4208C122.241 58.3419 123.224 58.3419 124.201 58.4208H124.975V57.6471C124.975 56.3366 124.848 55.0103 124.801 53.6682C124.754 52.3261 124.801 50.9682 124.801 49.5787V44.2103C124.738 42.884 124.738 41.5261 124.738 40.1998Z" fill="#231815"/>
<path d="M137.654 40.1998C137.654 38.8576 137.765 37.4998 137.828 36.1103V35.2734L137.007 35.3998L136.249 35.5103C135.808 35.5577 135.364 35.5577 134.923 35.5103L134.212 35.3998L133.391 35.2734V36.1103C133.391 37.4998 133.517 38.8576 133.565 40.1998C133.612 41.5419 133.644 42.8998 133.644 44.2734V49.705C133.644 51.0787 133.644 52.4524 133.565 53.7945C133.486 55.1366 133.454 56.4629 133.391 57.7734V58.5629L134.212 58.4208C135.19 58.3419 136.172 58.3419 137.149 58.4208H137.923V57.6471C137.923 56.3366 137.796 55.0103 137.749 53.6682C137.702 52.3261 137.67 50.9682 137.67 49.5787V44.2103C137.575 42.8998 137.607 41.5261 137.654 40.1998Z" fill="#231815"/>
<path d="M161.891 36.9321C161.906 36.695 161.954 36.4611 162.033 36.2373L162.238 35.3689H161.338L157.328 35.4636C154.738 35.5426 151.896 35.5426 149.307 35.4636L145.265 35.4005H144.381L144.586 36.2689C144.654 36.4851 144.701 36.7071 144.728 36.9321C144.717 37.1631 144.675 37.3916 144.602 37.611L144.317 38.6215L145.344 38.4794C145.754 38.4794 146.228 38.3689 146.781 38.3215L148.486 38.211H150.238H151.265C151.265 40.1531 151.265 42.4268 151.265 44.3847V49.8163C151.265 51.1899 151.265 52.5636 151.265 53.9057C151.265 55.2478 151.154 56.5742 151.091 57.8847V58.6742L151.865 58.5952C152.817 58.4617 153.777 58.4036 154.738 58.4215H155.512V57.6478C155.512 56.3373 155.402 55.011 155.354 53.6689C155.307 52.3268 155.354 50.9689 155.354 49.5794V44.211C155.354 42.2531 155.354 39.9794 155.354 38.0373H156.317H158.07L159.775 38.1478C160.328 38.1478 160.802 38.2426 161.212 38.3057L162.238 38.4478L161.954 37.4373C161.911 37.2724 161.89 37.1025 161.891 36.9321Z" fill="#231815"/>
<path d="M186.995 38.1319C185.863 37.0817 184.523 36.2803 183.063 35.7793C179.847 34.7269 176.379 34.7269 173.163 35.7793C171.703 36.2803 170.363 37.0817 169.231 38.1319C168.108 39.1989 167.23 40.4973 166.658 41.9372C165.437 45.195 165.437 48.7846 166.658 52.0425C167.226 53.4799 168.105 54.7739 169.231 55.8319C170.356 56.8922 171.705 57.6855 173.179 58.153C176.394 59.1429 179.832 59.1429 183.047 58.153C184.521 57.6855 185.87 56.8922 186.995 55.8319C188.116 54.7696 188.994 53.4768 189.568 52.0425C190.789 48.7846 190.789 45.195 189.568 41.9372C188.991 40.5003 188.113 39.203 186.995 38.1319ZM170.779 51.3004C170.339 49.9068 170.131 48.4507 170.163 46.9898C170.131 45.529 170.339 44.0729 170.779 42.6793C171.12 41.458 171.687 40.3117 172.452 39.3004C173.138 38.5128 173.99 37.8872 174.947 37.4688C176.989 36.736 179.221 36.736 181.263 37.4688C182.22 37.8872 183.072 38.5128 183.758 39.3004C184.517 40.2999 185.09 41.4286 185.447 42.6319C185.887 44.0255 186.095 45.4816 186.063 46.9425C186.095 48.4033 185.887 49.8594 185.447 51.253C185.089 52.4001 184.522 53.4709 183.774 54.4109C183.088 55.1985 182.236 55.824 181.279 56.2425C179.237 56.9753 177.004 56.9753 174.963 56.2425C174.006 55.824 173.154 55.1985 172.468 54.4109C171.715 53.4894 171.142 52.4341 170.779 51.3004Z" fill="#231815"/>
<path d="M226.043 35.1011L225.048 35.4169L224.527 35.5116C224.245 35.559 223.957 35.559 223.675 35.5116L223.154 35.4169L222.806 35.259L222.648 35.9221C222.554 36.38 222.364 37.0905 222.08 38.0379C221.796 38.9853 221.48 40.1063 221.117 41.3379C220.754 42.5695 220.359 43.8642 219.964 45.2221L218.78 49.1063C218.401 50.3379 217.833 51.9642 217.533 52.9432C217.533 53.0379 217.422 52.9432 217.359 52.6905C217.296 52.4379 217.359 52.4379 217.233 52.2958L216.159 49.0432L214.927 45.2853C214.501 43.9905 214.106 42.7274 213.727 41.5274C213.348 40.3274 213.017 39.2063 212.717 38.2116C212.417 37.2169 212.196 36.459 212.054 35.9063L211.88 35.2432L211.233 35.4169C210.949 35.4974 210.658 35.5451 210.364 35.559C210.07 35.5429 209.779 35.4952 209.496 35.4169L209.133 35.2432L208.975 35.9221C208.864 36.4274 208.659 37.1853 208.359 38.1484C208.059 39.1116 207.743 40.2011 207.364 41.3853C206.985 42.5695 206.59 43.8169 206.164 45.1274C205.738 46.4379 205.296 47.7011 204.901 48.9011C204.506 50.1011 203.859 51.9011 203.527 52.9116C203.527 53.0537 203.369 52.6748 203.369 52.6748C202.975 51.4274 202.611 50.2748 202.296 49.2011C201.801 47.6221 201.343 46.1063 200.922 44.6537C200.496 43.2327 200.101 41.7958 199.722 40.4063C199.343 39.0169 198.964 37.4853 198.569 35.9221L198.427 35.3063L197.811 35.4011L197.054 35.5116C196.592 35.559 196.126 35.559 195.664 35.5116L194.906 35.4011L193.738 35.2116L194.211 36.3169C194.417 36.8537 194.701 37.6905 195.048 38.7958C195.396 39.9011 195.822 41.2274 196.248 42.6484C196.675 44.0695 197.148 45.5695 197.622 47.1327L198.996 51.6327C199.438 53.0695 199.833 54.3642 200.164 55.4853C200.496 56.6063 200.764 57.4748 200.938 57.9958L201.111 58.5327H201.664C202.235 58.4541 202.814 58.4541 203.385 58.5327H203.922L204.111 58.0116C204.411 57.08 204.759 56.0379 205.138 54.8537L206.29 51.38L207.475 47.8748L208.58 44.6221L209.527 41.8905L209.875 41.7327C210.696 44.2432 211.454 46.7063 212.227 49.1063C213.143 52.0432 214.075 55.0274 215.022 57.9484L215.18 58.4853H215.748C216.272 58.4136 216.803 58.4136 217.327 58.4853H217.848L218.038 57.98C218.227 57.4748 218.527 56.6221 218.906 55.4853C219.285 54.3484 219.727 53.0379 220.217 51.5853C220.706 50.1327 221.211 48.6169 221.796 47.0221C222.38 45.4274 222.822 43.8642 223.375 42.4748C223.927 41.0853 224.29 39.759 224.685 38.6537C225.08 37.5484 225.38 36.759 225.585 36.2853L226.043 35.1011Z" fill="#231815"/>
<path d="M245.463 55.2627C245.037 54.2995 244.563 53.1943 244.026 51.9627C243.49 50.7311 242.937 49.4048 242.337 47.968C241.737 46.5311 241.121 45.0943 240.521 43.6417L238.737 39.3311C238.158 37.9101 237.632 36.5838 237.158 35.3522L236.984 34.9417H235.484L235.311 35.3522C233.732 39.0785 232.153 42.8206 230.479 46.4048C228.805 49.989 227.226 53.7311 225.553 57.4574L225.032 58.5627L226.232 58.4206C226.951 58.3416 227.676 58.3416 228.395 58.4206H228.963L229.121 57.868C229.39 56.9206 229.8 55.689 230.321 54.2364C230.511 53.7153 230.59 53.4785 230.653 53.289C230.716 53.0995 230.842 52.7995 231.111 52.1206H232.595C233.89 52.1206 235.216 52.1206 236.542 52.1206H239.7L239.826 52.2943C239.953 52.6101 240.19 53.0996 240.253 53.2732L240.569 54.0311C240.863 54.7785 241.132 55.489 241.374 56.1627C241.626 56.8259 241.816 57.3943 241.958 57.868L242.132 58.4364L242.7 58.3574C242.947 58.3353 243.195 58.3353 243.442 58.3574H245.1C245.342 58.3354 245.585 58.3354 245.826 58.3574L247.153 58.5469L246.505 57.3469C246.221 56.9838 245.874 56.2574 245.463 55.2627ZM231.932 50.1627L235.469 41.6364L239.053 50.1627H236.353C235.232 50.1627 233.969 50.1627 232.769 50.1627H231.932Z" fill="#231815"/>
</g>
</g>
<defs>
<clipPath id="clip0_2001_238">
<rect width="255.349" height="60" fill="white"/>
</clipPath>
<clipPath id="clip1_2001_238">
<rect width="542.826" height="60" fill="white" transform="translate(0.000488281)"/>
</clipPath>
</defs>
</svg>
