<svg width="232" height="60" viewBox="0 0 232 60" fill="none" xmlns="http://www.w3.org/2000/svg">
<g clip-path="url(#clip0_2001_265)">
<path d="M137.428 25.6418L147.339 25.6309V60.0005H134.089L116.97 34.6744V60.0005H96.5748C96.5748 60.0005 86.0132 47.9678 80.794 41.9497V60.0005H69.332L69.3628 25.6418H80.7758V39.4407L92.6653 25.6418H106.885C106.885 25.6418 97.4008 35.4552 92.6545 40.3773L107.428 57.5729V25.6418L120.79 25.6218C120.79 25.6218 137.162 49.0095 137.432 49.37C137.452 48.9135 137.428 25.6418 137.428 25.6418ZM47.9588 44.6635H65.544L65.5603 38.9479L47.9588 38.9787L47.9063 32.2269H66.8918V25.6526H0.000488281V32.2251H12.0168L12.0802 60.0095H24.1545V32.2378H37.9969L37.9842 60.0095H67.3918V52.2921H47.9588V44.6635ZM188.357 25.6418L206.292 60.0005H195.423L192.145 52.7178H173.551C173.551 52.7178 170.85 57.8012 169.667 59.9986H150.763L150.779 25.6436H161.613V56.3247L176.874 25.6418H188.357ZM188.319 46.0494L182.609 35.0928L176.912 46.0494H188.319Z" fill="#0D0D0D"/>
<path d="M231.884 12.7862C231.884 15.3151 231.134 17.7872 229.729 19.8899C228.324 21.9926 226.327 23.6314 223.991 24.5992C221.654 25.5669 219.084 25.8201 216.603 25.3268C214.123 24.8334 211.845 23.6157 210.057 21.8275C208.268 20.0393 207.051 17.761 206.557 15.2807C206.064 12.8004 206.317 10.2295 207.285 7.89315C208.253 5.55677 209.891 3.55984 211.994 2.15487C214.097 0.749899 216.569 0 219.098 0C222.489 0 225.741 1.34712 228.139 3.745C230.537 6.14288 231.884 9.39511 231.884 12.7862ZM229.105 15.9565C229.467 14.2971 228.884 12.817 228.118 11.4275C226.409 8.29907 223.844 5.72255 220.723 4C219.594 3.36594 218.391 2.91304 216.931 2.89493C216.817 2.89493 216.569 2.89493 216.322 2.92935C214.306 3.18297 213.482 4.67935 214.462 6.44022C214.947 7.33128 215.539 8.15936 216.226 8.9058C218.125 10.9239 220.049 12.9257 222.067 14.8243C223.18 15.8772 224.411 16.7993 225.734 17.5725C227.368 18.5109 228.692 17.7989 229.105 15.9565Z" fill="#00669E"/>
</g>
<defs>
<clipPath id="clip0_2001_265">
<rect width="231.884" height="60" fill="white"/>
</clipPath>
</defs>
</svg>
